<svg xmlns="http://www.w3.org/2000/svg" viewBox="0 0 384 384"><path fill="rgba(0,0,0,.5)" d="M309 192q13 0 22.5-9t9.5-23-9.5-23-22.5-9-22.5 9-9.5 23 9.5 23 22.5 9zm-64-85q13 0 22.5-9.5T277 75t-9.5-22.5T245 43t-22.5 9.5T213 75t9.5 22.5T245 107zm-106 0q13 0 22.5-9.5T171 75t-9.5-22.5T139 43t-22.5 9.5T107 75t9.5 22.5T139 107zm-64 85q13 0 22.5-9t9.5-23-9.5-23-22.5-9-22.5 9-9.5 23 9.5 23 22.5 9zM192 0q79 0 135.5 50T384 171q0 44-31.5 75T277 277h-37q-14 0-23 9.5t-9 22.5q0 11 8 21t8 22q0 14-9 23t-23 9q-80 0-136-56T0 192 56 56 192 0z"/></svg>