<svg height="1em" viewBox="0 0 384 384"><title>sincronizar</title><path d="M327.731 172.734c5.938 40.859-6.531 83.891-38.406 115.297-47.094 46.469-119.75 52.188-173.188 17.281l37.438-36.5L15.98 249.624l19.203 134.375 42.015-40.25c75.453 55.625 182.469 50.375 251.032-17.281 39.75-39.219 57.875-91.281 55.625-142.656l-56.125-11.078zM94.73 96.031c47.078-46.469 119.719-52.219 173.156-17.281l-37.5 36.484 137.594 19.203L348.792-.001l-41.969 40.344C231.354-15.329 124.37-10.016 55.792 57.624 16.042 96.827-2.067 148.89.167 200.249l56.125 11.063c-5.938-40.875 6.563-83.859 38.438-115.281z"/></svg>